<svg id="eTP7WD9CaAR1" xmlns="http://www.w3.org/2000/svg" xmlns:xlink="http://www.w3.org/1999/xlink" viewBox="0 0 205 170" shape-rendering="geometricPrecision" text-rendering="geometricPrecision"><style><![CDATA[#eTP7WD9CaAR3 {animation: eTP7WD9CaAR3_s_do 3000ms linear 1 normal forwards}@keyframes eTP7WD9CaAR3_s_do { 0% {stroke-dashoffset: 264.95} 50% {stroke-dashoffset: 264.95} 80% {stroke-dashoffset: 0} 100% {stroke-dashoffset: 0}} #eTP7WD9CaAR4 {animation: eTP7WD9CaAR4_s_do 3000ms linear 1 normal forwards}@keyframes eTP7WD9CaAR4_s_do { 0% {stroke-dashoffset: 119.24} 32% {stroke-dashoffset: 119.24} 56.666667% {stroke-dashoffset: 0} 100% {stroke-dashoffset: 0}} #eTP7WD9CaAR5 {animation: eTP7WD9CaAR5_s_do 3000ms linear 1 normal forwards}@keyframes eTP7WD9CaAR5_s_do { 0% {stroke-dashoffset: 200.28} 20% {stroke-dashoffset: 200.28} 46.666667% {stroke-dashoffset: 0} 100% {stroke-dashoffset: 0}} #eTP7WD9CaAR6 {animation: eTP7WD9CaAR6_s_do 3000ms linear 1 normal forwards}@keyframes eTP7WD9CaAR6_s_do { 0% {stroke-dashoffset: 360.04} 33.333333% {stroke-dashoffset: 0} 100% {stroke-dashoffset: 0}}]]></style><g id="eTP7WD9CaAR2" transform="matrix(1 0 0 1 -193.29528 -121.057082)" paint-order="stroke fill markers"><path id="eTP7WD9CaAR3" style="mix-blend-mode:overlay" d="M382.311906,138.653829L358.172157,259.352578Q366.339124,211.650658,389.761766,205.220913Q413.184408,198.791168,384.899366,261.138522" transform="matrix(1 0 0 1 -12.886605 -1.785943)" paint-order="stroke fill markers" fill="none" stroke="rgb(42,157,143)" stroke-width="10" stroke-dashoffset="264.95" stroke-dasharray="264.96"/><path id="eTP7WD9CaAR4" style="mix-blend-mode:overlay" d="M344.895294,206.848623Q343.324112,184.88355,326.790482,201.41718C310.256852,217.95081,300.627541,244.591559,315.324101,253.317641Q330.020661,262.043723,339.463851,243.661742" transform="matrix(1 0 0 1 -3.694324 -1.231439)" paint-order="stroke fill markers" fill="none" stroke="rgb(42,157,143)" stroke-width="10" stroke-dashoffset="119.24" stroke-dasharray="119.24"/><path id="eTP7WD9CaAR5" style="mix-blend-mode:overlay" d="M293.701464,211.414978C286.965215,226.828454,279.773751,242.426253,266.756282,250.152186C256.538315,255.219227,252.403905,250.105401,253.581472,240.720089C257.01891,224.570743,267.304345,211.078173,280.218988,199.845283C287.195146,194.062972,297.67894,194.708827,295.614065,206.025523C289.834572,221.258649,287.563911,232.459563,288.026535,241.179359Q288.94507,254.498117,296.012301,259.352578" transform="matrix(1 0 0 1 0.000001 0.000001)" paint-order="stroke fill markers" fill="none" stroke="rgb(42,157,143)" stroke-width="10" stroke-dashoffset="200.28" stroke-dasharray="200.28"/><path id="eTP7WD9CaAR6" style="mix-blend-mode:overlay" d="M193.418366,138.050336C193.418366,138.050336,253.468264,118.853703,263.226089,137.384902C283.368023,175.636686,181.407883,256.286559,181.407883,256.286559Q196.173034,244.853496,206.276919,255.875916C216.380804,266.898336,230.618096,282.972699,260.470484,285.269036Q290.322872,287.565373,294.915547,265.979801" transform="matrix(1 0 0 1 15.129 -0.605157)" paint-order="stroke fill markers" fill="none" stroke="rgb(42,157,143)" stroke-width="10" stroke-dashoffset="360.04" stroke-dasharray="360.04"/></g></svg>