<svg id="edOavBUj6Dq1" xmlns="http://www.w3.org/2000/svg" xmlns:xlink="http://www.w3.org/1999/xlink" viewBox="0 0 640 480" shape-rendering="geometricPrecision" text-rendering="geometricPrecision"><style><![CDATA[#edOavBUj6Dq3 {animation: edOavBUj6Dq3_s_do 3000ms linear 1 normal forwards}@keyframes edOavBUj6Dq3_s_do { 0% {stroke-dashoffset: 199.59} 20% {stroke-dashoffset: 199.59} 43.333333% {stroke-dashoffset: 0} 100% {stroke-dashoffset: 0}} #edOavBUj6Dq4 {animation: edOavBUj6Dq4_s_do 3000ms linear 1 normal forwards}@keyframes edOavBUj6Dq4_s_do { 0% {stroke-dashoffset: 360.04} 36.666667% {stroke-dashoffset: 0} 100% {stroke-dashoffset: 0}} #edOavBUj6Dq5 {animation: edOavBUj6Dq5_s_do 3000ms linear 1 normal forwards}@keyframes edOavBUj6Dq5_s_do { 0% {stroke-dashoffset: 119.24} 33.333333% {stroke-dashoffset: 119.24} 53.333333% {stroke-dashoffset: 0} 100% {stroke-dashoffset: 0}} #edOavBUj6Dq6 {animation: edOavBUj6Dq6_s_do 3000ms linear 1 normal forwards}@keyframes edOavBUj6Dq6_s_do { 0% {stroke-dashoffset: 264.96} 43.333333% {stroke-dashoffset: 264.96} 70% {stroke-dashoffset: 0} 100% {stroke-dashoffset: 0}}]]></style><g id="edOavBUj6Dq2" transform="matrix(1 0 0 1 0.000001 0.000001)" paint-order="stroke fill markers"><path id="edOavBUj6Dq3" style="mix-blend-mode:overlay" d="M293.701464,211.414978Q283.433858,234.290343,266.900228,248.527636Q250.366598,262.764929,253.581472,240.720089Q261.848289,218.215984,280.218988,199.845283Q289.863606,192.037735,295.374815,205.815762Q287.108,227.860601,288.026535,241.179359Q288.94507,254.498117,296.012301,259.352578" transform="matrix(1 0 0 1 0.000001 0.000001)" fill="none" stroke="rgb(42,157,143)" stroke-width="10" stroke-dashoffset="199.59" stroke-dasharray="199.59"/><path id="edOavBUj6Dq4" style="mix-blend-mode:overlay" d="M193.418366,138.050336C193.418366,138.050336,253.468264,118.853703,263.226089,137.384902C283.368023,175.636686,181.407883,256.286559,181.407883,256.286559Q196.173034,244.853496,206.276919,255.875916C216.380804,266.898336,230.618096,282.972699,260.470484,285.269036Q290.322872,287.565373,294.915547,265.979801" transform="matrix(1 0 0 1 15.128964 -0.605157)" fill="none" stroke="rgb(42,157,143)" stroke-width="10" stroke-dashoffset="360.04" stroke-dasharray="360.04"/><path id="edOavBUj6Dq5" style="mix-blend-mode:overlay" d="M344.895294,206.848623Q343.324112,184.88355,326.790482,201.41718C310.256852,217.95081,300.627541,244.591559,315.324101,253.317641Q330.020661,262.043723,339.463851,243.661742" transform="matrix(1 0 0 1 0.000001 0)" fill="none" stroke="rgb(42,157,143)" stroke-width="10" stroke-dashoffset="119.24" stroke-dasharray="119.24"/><path id="edOavBUj6Dq6" style="mix-blend-mode:overlay" d="M382.311906,138.653829L358.172157,259.352578Q366.339124,211.650658,389.761766,205.220913Q413.184408,198.791168,384.899366,261.138522" transform="matrix(1 0 0 1 -8.576557 -1.81048)" fill="none" stroke="rgb(42,157,143)" stroke-width="10" stroke-dashoffset="264.96" stroke-dasharray="264.96"/></g></svg>